M48
; DRILL file {KiCad 7.0.8} date Mon Oct 30 19:43:59 2023
; FORMAT={-:-/ absolute / inch / decimal}
; #@! TF.CreationDate,2023-10-30T19:43:59+01:00
; #@! TF.GenerationSoftware,Kicad,Pcbnew,7.0.8
; #@! TF.FileFunction,Plated,1,2,PTH
FMAT,2
INCH
; #@! TA.AperFunction,Plated,PTH,ComponentDrill
T1C0.0315
; #@! TA.AperFunction,Plated,PTH,ComponentDrill
T2C0.0433
; #@! TA.AperFunction,Plated,PTH,ComponentDrill
T3C0.0512
; #@! TA.AperFunction,Plated,PTH,ComponentDrill
T4C0.0591
%
G90
G05
T1
X1.6303Y-1.6725
X1.6303Y-2.4234
X1.6303Y-3.1744
X1.6303Y-3.9253
X1.6303Y-4.6763
X1.9303Y-1.6725
X1.9303Y-2.4234
X1.9303Y-3.1744
X1.9303Y-3.9253
X1.9303Y-4.6763
X2.3803Y-1.6763
X2.3803Y-2.4263
X2.3803Y-3.1763
X2.3803Y-3.9263
X2.3803Y-4.6763
X2.6803Y-1.6763
X2.6803Y-2.4263
X2.6803Y-3.1763
X2.6803Y-3.9263
X2.6803Y-4.6763
X3.1303Y-1.4888
X3.1303Y-2.2388
X3.1303Y-2.9888
X3.1303Y-3.7388
X3.1303Y-4.4888
X3.4303Y-1.4888
X3.4303Y-2.2388
X3.4303Y-2.9888
X3.4303Y-3.7388
X3.4303Y-4.4888
X3.8803Y-1.3913
X3.8803Y-2.1413
X3.8803Y-2.8913
X3.8803Y-3.6413
X3.8803Y-4.3913
X4.1803Y-1.3913
X4.1803Y-2.1413
X4.1803Y-2.8913
X4.1803Y-3.6413
X4.1803Y-4.3913
X4.6303Y-1.4888
X4.6303Y-2.2388
X4.6303Y-2.9888
X4.6303Y-3.7388
X4.6303Y-4.4888
X4.9303Y-1.4888
X4.9303Y-2.2388
X4.9303Y-2.9888
X4.9303Y-3.7388
X4.9303Y-4.4888
X5.3787Y-5.371
X5.6385Y-5.521
X5.6725Y-1.051
X5.6725Y-1.351
X5.6725Y-1.801
X5.6725Y-2.101
X5.6725Y-2.551
X5.6725Y-2.851
X5.6725Y-3.301
X5.6725Y-3.601
X5.7537Y-4.7214
X5.9345Y-5.9083
X6.0135Y-4.8714
X6.1943Y-6.0583
X6.3095Y-5.2588
X6.4903Y-6.4457
X6.5693Y-5.4088
X6.7501Y-6.5957
X6.8653Y-5.7962
X7.1251Y-5.9462
T2
X4.4724Y-0.1378
X4.4724Y-0.7378
X4.5724Y-0.1378
X4.5724Y-0.7378
X4.6724Y-0.1378
X4.6724Y-0.7378
X4.7724Y-0.1378
X4.7724Y-0.7378
X4.8724Y-0.1378
X4.8724Y-0.7378
X4.9724Y-0.1378
X4.9724Y-0.7378
X5.0724Y-0.1378
X5.0724Y-0.7378
X5.1724Y-0.1378
X5.1724Y-0.7378
X5.2724Y-0.1378
X5.2724Y-0.7378
X5.3724Y-0.1378
X5.3724Y-0.7378
X5.4724Y-0.1378
X5.4724Y-0.7378
X5.5724Y-0.1378
X5.5724Y-0.7378
T3
X4.7767Y-0.3394
X4.7767Y-0.5362
X5.2688Y-0.3394
X5.2688Y-0.5362
T4
X1.4447Y-1.2485
X1.4447Y-1.9985
X1.4447Y-2.7485
X1.4447Y-3.4985
X1.4447Y-4.2485
X1.6947Y-1.1485
X1.6947Y-1.8985
X1.6947Y-2.6485
X1.6947Y-3.3985
X1.6947Y-4.1485
X2.1947Y-1.2485
X2.1947Y-1.9985
X2.1947Y-2.7485
X2.1947Y-3.4985
X2.1947Y-4.2485
X2.4447Y-1.1485
X2.4447Y-1.8985
X2.4447Y-2.6485
X2.4447Y-3.3985
X2.4447Y-4.1485
X2.9447Y-1.061
X2.9447Y-1.811
X2.9447Y-2.561
X2.9447Y-3.311
X2.9447Y-4.061
X3.1947Y-0.961
X3.1947Y-1.711
X3.1947Y-2.461
X3.1947Y-3.211
X3.1947Y-3.961
X3.6947Y-0.9635
X3.6947Y-1.7135
X3.6947Y-2.4635
X3.6947Y-3.2135
X3.6947Y-3.9635
X3.9447Y-0.8635
X3.9447Y-1.6135
X3.9447Y-2.3635
X3.9447Y-3.1135
X3.9447Y-3.8635
X4.4447Y-1.061
X4.4447Y-1.811
X4.4447Y-2.561
X4.4447Y-3.311
X4.4447Y-4.061
X4.6947Y-0.961
X4.6947Y-1.711
X4.6947Y-2.461
X4.6947Y-3.211
X4.6947Y-3.961
X5.1947Y-1.151
X5.1947Y-1.901
X5.1947Y-2.651
X5.1947Y-3.401
X5.4319Y-4.9077
X5.4447Y-1.051
X5.4447Y-1.801
X5.4447Y-2.551
X5.4447Y-3.301
X5.6984Y-4.9461
X5.8069Y-4.2582
X5.9876Y-5.4451
X6.0734Y-4.2966
X6.2541Y-5.4835
X6.3626Y-4.7955
X6.5434Y-5.9824
X6.6291Y-4.8339
X6.8099Y-6.0208
X6.9184Y-5.3329
X7.1849Y-5.3713
T0
M30
