M48
; DRILL file {KiCad 7.0.8} date Mon Oct 30 19:43:59 2023
; FORMAT={-:-/ absolute / inch / decimal}
; #@! TF.CreationDate,2023-10-30T19:43:59+01:00
; #@! TF.GenerationSoftware,Kicad,Pcbnew,7.0.8
; #@! TF.FileFunction,NonPlated,1,2,NPTH
FMAT,2
INCH
; #@! TA.AperFunction,NonPlated,NPTH,ComponentDrill
T1C0.0669
; #@! TA.AperFunction,NonPlated,NPTH,ComponentDrill
T2C0.1575
%
G90
G05
T1
X1.3947Y-1.3485
X1.3947Y-2.0985
X1.3947Y-2.8485
X1.3947Y-3.5985
X1.3947Y-4.3485
X1.7947Y-1.3485
X1.7947Y-2.0985
X1.7947Y-2.8485
X1.7947Y-3.5985
X1.7947Y-4.3485
X2.1447Y-1.3485
X2.1447Y-2.0985
X2.1447Y-2.8485
X2.1447Y-3.5985
X2.1447Y-4.3485
X2.5447Y-1.3485
X2.5447Y-2.0985
X2.5447Y-2.8485
X2.5447Y-3.5985
X2.5447Y-4.3485
X2.8947Y-1.161
X2.8947Y-1.911
X2.8947Y-2.661
X2.8947Y-3.411
X2.8947Y-4.161
X3.2947Y-1.161
X3.2947Y-1.911
X3.2947Y-2.661
X3.2947Y-3.411
X3.2947Y-4.161
X3.6447Y-1.0635
X3.6447Y-1.8135
X3.6447Y-2.5635
X3.6447Y-3.3135
X3.6447Y-4.0635
X4.0447Y-1.0635
X4.0447Y-1.8135
X4.0447Y-2.5635
X4.0447Y-3.3135
X4.0447Y-4.0635
X4.3947Y-1.161
X4.3947Y-1.911
X4.3947Y-2.661
X4.3947Y-3.411
X4.3947Y-4.161
X4.7947Y-1.161
X4.7947Y-1.911
X4.7947Y-2.661
X4.7947Y-3.411
X4.7947Y-4.161
X5.1447Y-1.251
X5.1447Y-2.001
X5.1447Y-2.751
X5.1447Y-3.501
X5.3386Y-4.9693
X5.5447Y-1.251
X5.5447Y-2.001
X5.5447Y-2.751
X5.5447Y-3.501
X5.685Y-5.1693
X5.7136Y-4.3198
X5.8943Y-5.5067
X6.06Y-4.5198
X6.2407Y-5.7067
X6.2693Y-4.8572
X6.4501Y-6.0441
X6.6157Y-5.0572
X6.7965Y-6.2441
X6.8251Y-5.3945
X7.1715Y-5.5945
T2
X1.5947Y-1.3485
X1.5947Y-2.0985
X1.5947Y-2.8485
X1.5947Y-3.5985
X1.5947Y-4.3485
X2.3447Y-1.3485
X2.3447Y-2.0985
X2.3447Y-2.8485
X2.3447Y-3.5985
X2.3447Y-4.3485
X3.0947Y-1.161
X3.0947Y-1.911
X3.0947Y-2.661
X3.0947Y-3.411
X3.0947Y-4.161
X3.8447Y-1.0635
X3.8447Y-1.8135
X3.8447Y-2.5635
X3.8447Y-3.3135
X3.8447Y-4.0635
X4.5947Y-1.161
X4.5947Y-1.911
X4.5947Y-2.661
X4.5947Y-3.411
X4.5947Y-4.161
X5.3447Y-1.251
X5.3447Y-2.001
X5.3447Y-2.751
X5.3447Y-3.501
X5.5118Y-5.0693
X5.8868Y-4.4198
X6.0675Y-5.6067
X6.4425Y-4.9572
X6.6233Y-6.1441
X6.9983Y-5.4945
T0
M30
